<svg class="header-logo" xmlns="http://www.w3.org/2000/svg" xmlns:xlink="http://www.w3.org/1999/xlink" viewBox="0 0 170.1 84"><path class="header-logo-fill" d="M101.7,30.5v23.1h-2.3V35.1l-9.1,15.5h-1.2l-9.1-15.4v18.4h-2.3V30.5h2l10,17.1l9.9-17.1H101.7z"/><path class="header-logo-fill" d="M123.1,45.6h-14.5c0.1,1.8,0.8,3.3,2.1,4.4c1.3,1.1,2.8,1.7,4.7,1.7c1.1,0,2.1-0.2,3-0.6&#10;&#9;c0.9-0.4,1.7-0.9,2.3-1.7l1.3,1.5c-0.8,0.9-1.7,1.6-2.9,2.1c-1.2,0.5-2.4,0.7-3.8,0.7c-1.8,0-3.4-0.4-4.7-1.1&#10;&#9;c-1.4-0.8-2.4-1.8-3.2-3.1c-0.8-1.3-1.2-2.9-1.2-4.5c0-1.7,0.4-3.2,1.1-4.5s1.7-2.4,3-3.1c1.3-0.7,2.7-1.1,4.3-1.1&#10;&#9;c1.6,0,3,0.4,4.3,1.1c1.3,0.7,2.3,1.8,3,3.1c0.7,1.3,1.1,2.9,1.1,4.6L123.1,45.6z M110.5,39.7c-1.1,1.1-1.8,2.5-1.9,4.2h12.3&#10;&#9;c-0.2-1.7-0.8-3.1-1.9-4.2c-1.1-1.1-2.5-1.6-4.2-1.6C113,38.1,111.6,38.6,110.5,39.7z"/><path class="header-logo-fill" d="M143,29.1v24.5h-2.2v-3.4c-0.7,1.2-1.6,2.1-2.8,2.7c-1.2,0.6-2.5,0.9-3.9,0.9c-1.6,0-3.1-0.4-4.4-1.1&#10;&#9;c-1.3-0.7-2.4-1.8-3.1-3.1c-0.7-1.3-1.1-2.9-1.1-4.6s0.4-3.2,1.1-4.6c0.7-1.3,1.8-2.4,3.1-3.1c1.3-0.7,2.8-1.1,4.4-1.1&#10;&#9;c1.4,0,2.7,0.3,3.8,0.9c1.1,0.6,2.1,1.4,2.8,2.6V29.1H143z M137.6,50.8c1-0.6,1.7-1.4,2.3-2.4c0.6-1,0.8-2.2,0.8-3.5&#10;&#9;s-0.3-2.5-0.8-3.5c-0.6-1-1.3-1.8-2.3-2.4c-1-0.6-2.1-0.8-3.3-0.8c-1.2,0-2.3,0.3-3.3,0.8c-1,0.6-1.7,1.4-2.3,2.4&#10;&#9;c-0.6,1-0.8,2.2-0.8,3.5s0.3,2.5,0.8,3.5c0.6,1,1.3,1.8,2.3,2.4c1,0.6,2.1,0.8,3.3,0.8C135.5,51.6,136.6,51.3,137.6,50.8z"/><path class="header-logo-fill" d="M148.8,31.9c-0.3-0.3-0.5-0.7-0.5-1.2c0-0.4,0.2-0.8,0.5-1.2c0.3-0.3,0.7-0.5,1.2-0.5&#10;&#9;c0.5,0,0.9,0.2,1.2,0.5c0.3,0.3,0.5,0.7,0.5,1.1c0,0.5-0.2,0.9-0.5,1.2c-0.3,0.3-0.7,0.5-1.2,0.5C149.5,32.4,149.1,32.2,148.8,31.9z&#10;&#9; M148.8,36.2h2.3v17.3h-2.3V36.2z"/><path class="header-logo-fill" d="M168.3,37.8c1.2,1.1,1.8,2.8,1.8,5v10.7h-2.2v-2.7c-0.5,0.9-1.3,1.6-2.3,2.1c-1,0.5-2.2,0.8-3.6,0.8&#10;&#9;c-1.9,0-3.5-0.5-4.6-1.4c-1.1-0.9-1.7-2.1-1.7-3.7c0-1.5,0.5-2.7,1.6-3.6c1.1-0.9,2.8-1.4,5.1-1.4h5.5v-1.1c0-1.5-0.4-2.6-1.3-3.4&#10;&#9;c-0.8-0.8-2.1-1.2-3.7-1.2c-1.1,0-2.2,0.2-3.2,0.5c-1,0.4-1.9,0.9-2.6,1.5l-1.1-1.7c0.9-0.7,1.9-1.3,3.2-1.7&#10;&#9;c1.2-0.4,2.5-0.6,3.9-0.6C165.4,36.1,167.1,36.6,168.3,37.8z M165.7,50.9c0.9-0.6,1.6-1.5,2.1-2.6v-2.8h-5.4c-3,0-4.4,1-4.4,3.1&#10;&#9;c0,1,0.4,1.8,1.2,2.4c0.8,0.6,1.8,0.9,3.2,0.9C163.6,51.9,164.7,51.6,165.7,50.9z"/><g><path class="header-logo-fill" d="M30.8,0C12.6,0,0,4.2,0,4.2v22.6h3.9V7.3c8.8-2.2,17.6-3.3,26.9-3.3c9.3,0,18.2,1.1,26.9,3.3v19.5&#10;&#9;&#9;h3.9V4.2C61.6,4.2,49,0,30.8,0z"/><path class="header-logo-fill" d="M30.8,84C12.6,84,0,79.8,0,79.8V57.2h3.9v19.5c8.8,2.2,17.6,3.3,26.9,3.3c9.3,0,18.2-1.1,26.9-3.3&#10;&#9;&#9;V57.2h3.9v22.6C61.6,79.8,49,84,30.8,84z"/><path class="header-logo-fill" d="M16.2,30.5v3.7H3.9v6.1H15v3.5H3.9v6.2h12.7v3.7H0V30.5H16.2z"/><path class="header-logo-fill" d="M42.4,53.5V30.5h3.9v9.7h11.5v-9.7h3.9v23.1h-3.9v-9.8H46.3v9.8L42.4,53.5L42.4,53.5z"/><g><path class="header-logo-fill" d="M35.8,42.6c-1.2-1-3-1.8-5.3-2.4c-2.4-0.6-3.9-1.1-4.6-1.6c-0.7-0.5-1.1-1.2-1.1-2.1&#10;&#9;&#9;&#9;s0.4-1.6,1.1-2.1c0.7-0.5,1.7-0.7,2.8-0.7c1.1,0,2.3,0.2,3.4,0.6c1.2,0.4,2.1,0.9,2.8,1.5l2.1-2.9c-1.1-0.9-2.3-1.6-3.8-2&#10;&#9;&#9;&#9;c-1.5-0.5-2.9-0.7-4.4-0.7c-2.3,0-4.2,0.6-5.8,1.7c-1.6,1.2-2.3,2.8-2.3,4.9c0,2.1,0.7,3.7,2,4.8c0.7,0.5,1.5,1,2.3,1.3&#10;&#9;&#9;&#9;c0.9,0.3,2.2,0.7,3.9,1.1c1.7,0.4,2.9,0.9,3.6,1.4c0.7,0.5,1,1.2,1,2.1c0,0.9-0.4,1.6-1.1,2.1c-0.7,0.5-1.7,0.8-3,0.8&#10;&#9;&#9;&#9;c-2.5,0-4.9-1-7.3-3l-2.4,2.9c2.8,2.5,6,3.7,9.6,3.7c2.5,0,4.5-0.6,6-1.9s2.3-2.9,2.3-4.9C37.6,45.2,37,43.6,35.8,42.6z"/></g></g></svg>